HIERARCHY
ROOT Hips
{
  OFFSET -33.9132 29.2015 117.021
  CHANNELS 6 Xposition Yposition Zposition Zrotation Xrotation Yrotation
  JOINT LeftUpLeg
  {
    OFFSET 8.64259 1.95398 -2.38835
    CHANNELS 3 Zrotation Xrotation Yrotation
    JOINT LeftLeg
    {
      OFFSET 43.7702 0 0
      CHANNELS 3 Zrotation Xrotation Yrotation
      JOINT LeftFoot
      {
        OFFSET 40.6238 0 0
        CHANNELS 3 Zrotation Xrotation Yrotation
        JOINT LeftToeBase
        {
          OFFSET 12.7242 0 0
          CHANNELS 3 Zrotation Xrotation Yrotation
          End Site
          {
            OFFSET 0 0 0
          }
        }
      }
    }
  }
  JOINT RightUpLeg
  {
    OFFSET -8.2249 1.95398 -2.59336
    CHANNELS 3 Zrotation Xrotation Yrotation
    JOINT RightLeg
    {
      OFFSET 43.5653 0 0
      CHANNELS 3 Zrotation Xrotation Yrotation
      JOINT RightFoot
      {
        OFFSET 40.6238 0 0
        CHANNELS 3 Zrotation Xrotation Yrotation
        JOINT RightToeBase
        {
          OFFSET 12.7242 0 0
          CHANNELS 3 Zrotation Xrotation Yrotation
          End Site
          {
            OFFSET 0 0 0
          }
        }
      }
    }
  }
  JOINT Spine
  {
    OFFSET 0.165834 0.87714 6.61349
    CHANNELS 3 Zrotation Xrotation Yrotation
    JOINT Spine1
    {
      OFFSET 7.38963 1.71661e-005 0
      CHANNELS 3 Zrotation Xrotation Yrotation
      JOINT Spine2
      {
        OFFSET 11.9445 1.14441e-005 0
        CHANNELS 3 Zrotation Xrotation Yrotation
        JOINT Spine3
        {
          OFFSET 14.7254 4.19617e-005 0
          CHANNELS 3 Zrotation Xrotation Yrotation
          JOINT Spine4
          {
            OFFSET 10.9679 0 0
            CHANNELS 3 Zrotation Xrotation Yrotation
            JOINT RightShoulder
            {
              OFFSET 2.46616 -1.6653 3.69651
              CHANNELS 3 Zrotation Xrotation Yrotation
              JOINT RightArm
              {
                OFFSET 13.0012 0 0
                CHANNELS 3 Zrotation Xrotation Yrotation
                JOINT RightForeArm
                {
                  OFFSET 28.7848 1.62311e-005 0
                  CHANNELS 3 Zrotation Xrotation Yrotation
                  JOINT RightHand
                  {
                    OFFSET 26.5688 1.62095e-005 0
                    CHANNELS 3 Zrotation Xrotation Yrotation
                    End Site
                    {
                      OFFSET 0 0 0
                    }
                  }
                }
              }
            }
            JOINT LeftShoulder
            {
              OFFSET 2.38034 -1.29275 -3.7523
              CHANNELS 3 Zrotation Xrotation Yrotation
              JOINT LeftArm
              {
                OFFSET 16.3182 6.07031e-005 0
                CHANNELS 3 Zrotation Xrotation Yrotation
                JOINT LeftForeArm
                {
                  OFFSET 27.0901 0 0
                  CHANNELS 3 Zrotation Xrotation Yrotation
                  JOINT LeftHand
                  {
                    OFFSET 24.5451 1.51738e-005 0
                    CHANNELS 3 Zrotation Xrotation Yrotation
                    End Site
                    {
                      OFFSET 0 0 0
                    }
                  }
                }
              }
            }
            JOINT Neck
            {
              OFFSET 5.0226 -0.0266342 0
              CHANNELS 3 Zrotation Xrotation Yrotation
              JOINT Head
              {
                OFFSET 6.69364 2.86102e-005 0
                CHANNELS 3 Zrotation Xrotation Yrotation
                End Site
                {
                  OFFSET 0 0 0
                }
              }
            }
          }
        }
      }
    }
  }
}
MOTION
Frames:	6
Frame Time:	0.0416667
-291.564 89.6383 -244.272 -110.525 53.5115 -77.0896 -169.898 19.2213 86.1509 -54.2288 11.702 -2.80319 78.5999 13.9694 4.11487 20.8121 -4.66453 1.80727 174.52 19.8076 81.3815 -88.9319 -5.88964 -4.82757 67.9274 -6.25838 -5.1307 18.2782 1.88708 8.60205 -0.319031 7.94894 -89.8606 10.9768 -0.570552 0.331598 -0.694036 -0.555406 0.356384 -23.2301 -0.643826 0.144784 -3.21746 -0.643838 0.144787 94.8764 -24.3998 -98.4328 32.2655 2.37485 49.2608 -56.5515 8.27613 -98.9732 -33.1207 8.24248 -32.948 -86.7338 -44.1382 82.6302 -16.8578 24.0213 1.63639 37.513 33.0637 -54.3349 21.8533 -10.3791 -46.5311 19.0352 3.83106 -1.63169 -10.63 4.13152 1.12167 
-286.585 90.6747 -237.645 -113.29 52.9665 -72.9258 -171.142 22.7483 87.4693 -50.5067 9.38545 -2.35108 69.4935 6.68434 3.4998 17.1477 -4.26902 -2.26125 173.028 3.61263 79.6348 -82.489 -13.4565 -6.29333 70.0936 -8.25394 -5.16394 19.4949 1.4153 8.58754 1.04305 7.80529 -90.0429 11.2664 2.05603 -0.288835 -0.403081 2.04134 -0.379076 -22.9498 2.04773 0.342633 -2.93716 2.04772 0.342621 95.0152 -18.6783 -99.9831 31.1455 2.93749 49.7691 -44.427 9.03352 -103.164 -44.4908 10.5426 -31.0285 -84.2629 -40.7464 86.1483 -26.2327 23.6369 24.1977 40.0982 22.8819 -59.6193 15.6703 -9.81607 -57.7079 13.3285 -2.3032 -3.28596 -8.41239 -1.41746 0.456541 
-280.007 94.1705 -230.285 -117.281 53.4083 -69.0582 -173.476 15.9637 89.5668 -26.5973 11.4706 -2.05744 51.5201 -4.67843 1.21015 15.1559 -3.79736 -4.63234 173.375 -9.99801 82.7168 -66.7471 -23.4444 -8.58999 73.4686 -9.29046 -2.04329 23.187 0.258579 7.76522 2.30061 7.62331 -90.288 11.6558 4.44108 -1.03782 -0.00804168 4.39108 -1.23263 -22.6055 4.54724 0.347734 -2.59282 4.54724 0.347732 95.9785 -9.68119 -100.905 34.3986 -1.87967 51.2528 -38.2455 6.38144 -102.041 -48.9041 9.19674 -25.421 -82.6445 -39.4857 88.7427 -20.1922 24.0492 31.9768 37.9605 15.7376 -62.0047 14.8996 -10.528 -62.6605 5.08022 -6.12611 -2.59204 -8.84262 -5.53127 -0.829731 
-271.213 95.9176 -221.106 -109.491 53.4659 -73.6674 -176.08 20.9518 92.0089 -18.8732 21.7009 -0.666398 52.4852 -4.63724 -0.141601 8.59316 -13.1414 4.48525 173.205 -6.03288 86.4881 -52.2812 -18.0686 -4.54607 72.1629 -8.88615 -3.44835 21.7662 0.0761752 10.1233 2.10184 7.05179 -90.3556 12.799 4.00413 -1.18769 1.13356 3.94797 -1.36302 -21.4515 4.17568 0.0727075 -1.4389 4.17568 0.0727025 95.6746 -9.65444 -101.756 36.5192 -2.91967 48.8951 -38.303 2.32757 -97.6141 -48.0406 8.80156 -25.0042 -83.4544 -40.0062 87.4105 -17.2751 20.5094 30.5953 36.6775 16.1009 -61.4742 16.591 -11.3366 -61.5672 5.37583 -5.89634 -3.91452 -11.7861 -5.11688 0.567607 
-261.121 93.64 -211.445 -107.773 49.8149 -76.5287 -174.809 29.8005 92.184 -43.4637 22.6061 -0.858465 62.7599 2.32915 4.17939 16.3899 -6.68279 1.35356 174.008 2.2291 89.4751 -53.9915 -13.0654 -3.09259 74.4572 -11.2303 -7.49281 33.7964 -4.21657 10.4344 1.06389 7.61231 -90.1271 11.6551 2.05667 -0.467692 -0.0143508 2.03409 -0.55781 -22.5626 2.1021 0.172319 -2.54993 2.10212 0.172317 95.1573 -14.2672 -101.199 39.8159 -2.21703 47.6481 -36.363 -2.67926 -88.8709 -41.7326 8.96633 -28.7779 -87.7848 -45.2807 81.1663 -8.35704 18.9582 15.7394 36.893 21.1721 -60.0264 24.3425 -15.1038 -58.2001 17.1322 -2.51616 -1.1712 -14.5534 -1.74655 -3.5083 
-251.322 90.8476 -201.333 -108.995 47.8345 -78.2256 -167.822 32.3513 90.7347 -71.4337 10.5118 -0.510865 71.8363 8.46193 4.07681 19.383 -4.79888 0.709613 173.891 11.2358 87.8767 -59.6555 -13.4444 -3.51264 82.1083 -16.7639 -5.70597 26.9998 -0.230454 3.92824 -0.152419 8.05832 -89.6823 10.76 -0.156828 0.644931 -0.911055 -0.128291 0.651202 -23.4462 -0.343394 0.567995 -3.43352 -0.343424 0.567977 95.138 -17.3003 -100.086 45.593 -0.934329 50.1232 -44.4809 -11.8865 -78.9233 -34.6793 7.25501 -28.5733 -87.9705 -44.9698 80.8236 5.15603 14.0858 -7.06367 29.9595 21.0895 -57.0725 20.2918 -13.8377 -62.2854 20.5923 1.9387 -4.11108 -13.301 3.16571 0.117466 
